<?xml version="1.0" standalone="no"?>
<!DOCTYPE svg PUBLIC "-//W3C//DTD SVG 20010904//EN"
 "http://www.w3.org/TR/2001/REC-SVG-20010904/DTD/svg10.dtd">
<svg version="1.0" xmlns="http://www.w3.org/2000/svg"
 width="494.000000pt" height="231.000000pt" viewBox="0 0 494.000000 231.000000"
 preserveAspectRatio="xMidYMid meet">

<g transform="translate(0.000000,231.000000) scale(0.100000,-0.100000)"
fill="#000000" stroke="none">
<path d="M4250 1150 l0 -1130 335 0 335 0 0 1130 0 1130 -335 0 -335 0 0
-1130z"/>
<path d="M3146 994 c-30 -30 -13 -74 29 -74 44 0 63 60 26 80 -27 14 -37 13
-55 -6z"/>
<path d="M107 981 c-59 -38 -80 -105 -52 -164 20 -42 39 -56 120 -86 76 -28
95 -46 95 -87 0 -67 -96 -98 -168 -54 -41 25 -58 25 -71 1 -8 -14 -5 -23 12
-39 52 -49 169 -59 228 -19 63 42 88 134 52 187 -24 36 -40 46 -108 71 -101
36 -130 82 -82 127 29 27 82 29 133 5 35 -17 36 -17 50 2 20 28 18 32 -26 55
-52 26 -144 27 -183 1z"/>
<path d="M2325 933 c-13 -80 -14 -83 -40 -83 -20 0 -25 -5 -25 -25 0 -20 5
-25 24 -25 24 0 24 0 28 -124 4 -149 13 -166 88 -166 60 0 87 18 71 48 -10 18
-15 20 -36 10 -49 -22 -55 -9 -55 117 l0 115 45 0 c41 0 45 2 45 25 0 23 -4
25 -45 25 l-45 0 0 60 c0 57 -1 60 -25 60 -20 0 -25 -6 -30 -37z"/>
<path d="M2925 960 c-3 -5 -9 -32 -12 -59 -5 -45 -8 -50 -32 -53 -33 -4 -37
-41 -5 -46 21 -3 22 -9 25 -127 5 -147 14 -165 86 -165 69 0 102 27 72 57 -8
8 -18 8 -35 1 -44 -20 -54 2 -54 123 l0 108 48 3 c40 3 47 6 50 26 3 20 0 22
-47 22 l-51 0 0 60 c0 53 -2 60 -19 60 -11 0 -23 -4 -26 -10z"/>
<path d="M462 840 c-51 -31 -72 -75 -72 -150 0 -117 55 -180 157 -180 87 0
162 42 128 70 -13 11 -22 10 -51 -3 -68 -33 -128 -16 -159 43 -30 58 -27 60
105 60 l120 0 0 35 c0 53 -25 102 -62 125 -44 27 -122 27 -166 0z m143 -55
c14 -13 25 -33 25 -45 0 -19 -6 -20 -85 -20 -79 0 -85 1 -85 20 0 34 44 70 85
70 25 0 44 -8 60 -25z"/>
<path d="M767 854 c-4 -4 -7 -83 -7 -176 l0 -168 35 0 35 0 0 116 c0 115 0
116 30 146 26 26 36 30 66 25 31 -5 36 -3 45 19 13 35 4 44 -41 44 -26 0 -48
-8 -68 -25 -37 -31 -40 -31 -44 -2 -3 22 -36 36 -51 21z"/>
<path d="M1000 848 c0 -7 30 -86 67 -176 l66 -163 31 3 c30 3 33 8 98 168 37
91 67 169 68 173 0 5 -14 7 -32 5 -31 -3 -34 -7 -83 -131 l-51 -128 -51 128
c-49 123 -52 128 -82 131 -20 2 -31 -1 -31 -10z"/>
<path d="M1434 846 c-105 -46 -113 -254 -12 -316 47 -28 137 -27 189 2 43 24
46 30 24 48 -13 11 -22 10 -51 -3 -44 -21 -93 -22 -123 -1 -21 15 -51 70 -51
94 0 6 44 10 120 10 l120 0 0 40 c0 110 -109 172 -216 126z m135 -62 c12 -15
21 -35 21 -45 0 -17 -9 -19 -85 -19 -76 0 -85 2 -85 19 0 10 12 30 26 45 37
36 94 36 123 0z"/>
<path d="M1730 685 l0 -175 30 0 30 0 0 108 c0 89 3 112 20 139 21 35 55 49
94 39 20 -5 25 -1 30 20 9 35 0 44 -44 44 -26 0 -48 -8 -68 -25 l-30 -25 -6
25 c-5 18 -13 25 -31 25 l-25 0 0 -175z"/>
<path d="M2035 848 c-34 -18 -55 -52 -55 -89 0 -45 22 -66 103 -99 56 -23 62
-28 62 -55 0 -46 -38 -60 -105 -38 -44 14 -53 15 -61 2 -14 -22 -11 -27 21
-44 43 -22 135 -20 170 5 51 37 60 113 17 148 -8 7 -41 23 -73 35 -70 27 -86
47 -60 76 22 24 54 26 103 9 29 -10 36 -10 43 2 15 23 13 26 -24 44 -39 18
-111 21 -141 4z"/>
<path d="M2595 846 c-17 -7 -36 -21 -44 -30 -12 -15 -12 -19 1 -32 14 -14 20
-14 56 5 23 12 50 21 62 21 29 0 60 -35 60 -69 0 -27 -4 -30 -42 -36 -118 -18
-163 -50 -161 -111 2 -55 35 -84 97 -84 33 0 62 7 83 19 31 19 31 19 36 0 3
-13 14 -19 31 -19 l26 0 0 108 c0 144 -7 177 -42 213 -25 25 -37 29 -81 29
-29 -1 -66 -7 -82 -14z m133 -223 c-3 -33 -8 -41 -42 -57 -47 -23 -89 -13 -94
23 -6 43 30 66 106 70 32 1 33 0 30 -36z"/>
<path d="M3140 685 l0 -175 35 0 35 0 0 175 0 175 -35 0 -35 0 0 -175z"/>
<path d="M3371 843 c-66 -34 -98 -113 -82 -200 17 -88 71 -133 162 -133 104 0
160 62 160 175 0 73 -17 114 -63 148 -39 29 -132 34 -177 10z m138 -61 c34
-33 46 -88 31 -142 -15 -57 -41 -80 -89 -80 -31 0 -44 6 -64 29 -92 110 24
292 122 193z"/>
<path d="M3687 853 c-4 -3 -7 -82 -7 -175 l0 -168 35 0 35 0 0 129 0 129 34
21 c42 26 67 26 97 2 23 -18 24 -27 27 -150 l4 -131 29 0 29 0 0 135 c0 75 -5
145 -11 158 -25 55 -116 74 -177 37 -40 -24 -38 -24 -45 0 -5 19 -36 27 -50
13z"/>
<path d="M1110 275 c0 -13 147 -15 1265 -15 1118 0 1265 2 1265 15 0 13 -147
15 -1265 15 -1118 0 -1265 -2 -1265 -15z"/>
</g>
</svg>
